<?xml version="1.0" encoding="utf-8"?><svg xmlns="http://www.w3.org/2000/svg" xmlns:xlink="http://www.w3.org/1999/xlink"><symbol viewBox="0 0 43 33" id="check" xmlns="http://www.w3.org/2000/svg"><path d="M14.048 25.571l-10-10-3.333 3.334 13.333 13.333L42.62 3.667 39.286.333 14.048 25.571z"/></symbol><symbol viewBox="0 0 32 32" id="clip" xmlns="http://www.w3.org/2000/svg"><path d="M22.09 8.364V23A5.09 5.09 0 0 1 17 28.09 5.09 5.09 0 0 1 11.91 23V7.09a3.183 3.183 0 0 1 6.363 0v13.364c0 .7-.573 1.273-1.273 1.273s-1.273-.573-1.273-1.273V8.364h-1.909v12.09a3.183 3.183 0 0 0 6.364 0V7.091A5.09 5.09 0 0 0 15.09 2 5.09 5.09 0 0 0 10 7.09V23c0 3.87 3.13 7 7 7s7-3.13 7-7V8.364h-1.91z"/></symbol><symbol viewBox="0 0 23 22" id="close" xmlns="http://www.w3.org/2000/svg"><path fill-rule="evenodd" clip-rule="evenodd" d="M.542 21.46a1.849 1.849 0 0 0 2.614 0l7.845-7.845 7.844 7.844a1.849 1.849 0 1 0 2.614-2.614L13.615 11l7.845-7.844A1.849 1.849 0 1 0 18.845.54l-7.844 7.845L3.156.54A1.849 1.849 0 1 0 .542 3.156L8.386 11 .542 18.844a1.849 1.849 0 0 0 0 2.615z"/></symbol><symbol viewBox="0 0 20 22" id="doc" xmlns="http://www.w3.org/2000/svg"><path fill-rule="evenodd" clip-rule="evenodd" d="M3 2h10v4h4v1h2V4.59L14.41 0H3C1.9 0 1 .9 1 2v5h2V2zm14 17v1H3v-1H1v1c0 1.1.9 2 2 2h14c1.1 0 2-.9 2-2v-1h-2zm3-8h-3c-.55 0-1 .45-1 1v2c0 .55.45 1 1 1h3v2h-3c-1.65 0-3-1.35-3-3v-2c0-1.65 1.35-3 3-3h3v2zM6 13c0-2.21-1.79-4-4-4H0v8h2c2.21 0 4-1.79 4-4zm-4-2c1.1 0 2 .9 2 2s-.9 2-2 2v-4zm8 6c-1.65 0-3-1.35-3-3v-2c0-1.65 1.35-3 3-3s3 1.35 3 3v2c0 1.65-1.35 3-3 3zm0-2c.55 0 1-.45 1-1v-2c0-.55-.45-1-1-1s-1 .45-1 1v2c0 .55.45 1 1 1z"/></symbol><symbol viewBox="0 0 48 48" id="flag" xmlns="http://www.w3.org/2000/svg"><path d="M40 4H8C5.8 4 4.02 5.8 4.02 8L4 44l8-8h28c2.2 0 4-1.8 4-4V8c0-2.2-1.8-4-4-4zM26 22h-4V10h4v12zm0 8h-4v-4h4v4z"/></symbol><symbol fill="none" viewBox="0 0 50 50" id="geo" xmlns="http://www.w3.org/2000/svg"><circle cx="25" cy="25" r="8"/><path d="M11 25h7m14 0h7M25 39v-7m0-14v-7"/></symbol><symbol viewBox="0 0 177 23" id="logo" xmlns="http://www.w3.org/2000/svg"><path d="M29.416 6.678v13.376h4.465v-6.678c0-1.234.999-2.233 2.233-2.233h6.678V8.911h-6.678a4.35 4.35 0 0 0-2.233.626V6.678c0-1.234.999-2.232 2.233-2.232h11.143V2.233H33.881c-2.467 0-4.465 1.997-4.465 4.445zM49.49 20.054h4.465V2.233H49.49v17.821zM75.125 6.678a4.463 4.463 0 0 0-4.465-4.465h-8.91a4.463 4.463 0 0 0-4.466 4.465v13.376h13.375a4.463 4.463 0 0 0 4.466-4.465v-2.213c0-1.332-.607-2.526-1.547-3.349.94-.823 1.547-1.998 1.547-3.349zm-2.233 8.93a2.232 2.232 0 0 1-2.232 2.233h-8.91v-4.465c0-1.234.998-2.233 2.232-2.233h6.678c1.234 0 2.232 1 2.232 2.233v2.232zM70.66 8.911h-6.678a4.35 4.35 0 0 0-2.233.626V6.678c0-1.234.999-2.232 2.233-2.232h6.678a2.232 2.232 0 1 1 0 4.465zm7.344-2.233v8.93a4.463 4.463 0 0 0 4.465 4.466h13.376V17.84H84.702a2.232 2.232 0 0 1-2.233-2.233v-2.232c0-1.234.999-2.233 2.233-2.233h6.678V8.911h-6.678c-.823 0-1.567.235-2.233.626V6.678c0-1.234.999-2.232 2.233-2.232h11.143V2.233H82.469c-2.468 0-4.465 1.997-4.465 4.445zm61.082 0v8.93a4.463 4.463 0 0 0 4.465 4.466h13.376V17.84h-11.143a2.232 2.232 0 0 1-2.233-2.233v-2.232c0-1.234.999-2.233 2.233-2.233h6.698V8.911h-6.698c-.823 0-1.567.235-2.233.626V6.678c0-1.234.999-2.232 2.233-2.232h11.143V2.233h-13.376c-2.467 0-4.465 1.997-4.465 4.445zm-27.633-4.445h-8.91a4.463 4.463 0 0 0-4.466 4.465v13.376h4.466v-4.466c0-1.233.998-2.232 2.232-2.232h3.427c.823 0 1.547.45 1.939 1.116l3.212 5.582h2.565l-3.818-6.62c-.02-.039-.059-.078-.079-.137a4.444 4.444 0 0 0 3.897-4.406V6.678c-.019-2.448-2.017-4.445-4.465-4.445zm2.213 6.678a2.231 2.231 0 0 1-2.232 2.232h-6.698c-.823 0-1.567.235-2.233.627V6.678c0-1.234.999-2.232 2.233-2.232h6.698a2.23 2.23 0 0 1 2.232 2.232v2.233zm18.292-6.678h-8.911a4.463 4.463 0 0 0-4.465 4.465v13.376h4.465V6.678c0-1.234.999-2.232 2.233-2.232h6.678a2.23 2.23 0 0 1 2.232 2.232v13.376h2.233V6.678c-.02-2.448-2.017-4.445-4.465-4.445zm38.659 0H159.16v2.232h7.305a4.278 4.278 0 0 0-.627 2.213v13.376h4.465V6.678c0-1.234.999-2.232 2.233-2.232h4.465V2.233h-6.384zM11.143 0C4.993 0 0 4.994 0 11.143c0 6.15 4.994 11.144 11.143 11.144 6.15 0 11.144-4.994 11.144-11.144S17.293 0 11.143 0zM3.35 11.143a2.232 2.232 0 1 1 4.465 0 2.232 2.232 0 1 1-4.465 0zm6.933 5.934a2.201 2.201 0 0 1-3.036.823c-1.077-.607-1.43-1.978-.822-3.036a2.24 2.24 0 0 1 3.055-.822 2.212 2.212 0 0 1 .803 3.035zM9.48 8.245a2.235 2.235 0 0 1-3.055-.803 2.24 2.24 0 0 1 .822-3.055 2.245 2.245 0 0 1 3.055.822 2.235 2.235 0 0 1-.822 3.036zm2.526-3.036c.607-1.057 1.978-1.43 3.055-.822a2.252 2.252 0 0 1 .803 3.055 2.23 2.23 0 0 1-3.055.803 2.212 2.212 0 0 1-.803-3.036zM15.04 17.9a2.201 2.201 0 0 1-3.035-.822 2.212 2.212 0 0 1 .803-3.035c1.077-.607 2.448-.255 3.055.822.607 1.058.255 2.429-.822 3.036zm1.685-4.523a2.232 2.232 0 1 1 0-4.465c1.233 0 2.232.998 2.232 2.232-.02 1.234-.998 2.233-2.232 2.233z"/></symbol><symbol viewBox="0 0 24 24" id="menu-01" xmlns="http://www.w3.org/2000/svg"><path d="M11 7h6v2h-6V7zm0 4h6v2h-6v-2zm0 4h6v2h-6v-2zM7 7h2v2H7V7zm0 4h2v2H7v-2zm0 4h2v2H7v-2zM20.1 3H3.9c-.5 0-.9.4-.9.9v16.2c0 .4.4.9.9.9h16.2c.4 0 .9-.5.9-.9V3.9c0-.5-.5-.9-.9-.9zM19 19H5V5h14v14z"/></symbol><symbol viewBox="0 0 24 24" id="menu-02" xmlns="http://www.w3.org/2000/svg"><path fill-rule="evenodd" clip-rule="evenodd" d="M12.41 2.58l9 9c.36.36.59.87.59 1.42 0 .55-.22 1.05-.59 1.41l-7 7c-.36.37-.86.59-1.41.59-.55 0-1.05-.22-1.41-.58l-9-9C2.22 12.05 2 11.55 2 11V4c0-1.1.9-2 2-2h7c.55 0 1.05.22 1.41.58zM4 11l9 9.01 7-7.02-9-9V4H4v7zm4-4.5a1.5 1.5 0 1 1-3 0 1.5 1.5 0 0 1 3 0z"/></symbol><symbol viewBox="0 0 24 24" id="menu-03" xmlns="http://www.w3.org/2000/svg"><path d="M10 16.5l6-4.5-6-4.5v9zM12 2C6.48 2 2 6.48 2 12s4.48 10 10 10 10-4.48 10-10S17.52 2 12 2zm0 18c-4.41 0-8-3.59-8-8s3.59-8 8-8 8 3.59 8 8-3.59 8-8 8z"/></symbol><symbol viewBox="0 0 24 24" id="menu-04" xmlns="http://www.w3.org/2000/svg"><path d="M12 2C6.48 2 2 6.48 2 12s4.48 10 10 10 10-4.48 10-10S17.52 2 12 2zm7.46 7.12l-2.78 1.15a4.982 4.982 0 0 0-2.95-2.94l1.15-2.78c2.1.8 3.77 2.47 4.58 4.57zM12 15c-1.66 0-3-1.34-3-3s1.34-3 3-3 3 1.34 3 3-1.34 3-3 3zM9.13 4.54l1.17 2.78a5 5 0 0 0-2.98 2.97L4.54 9.13a7.984 7.984 0 0 1 4.59-4.59zM4.54 14.87l2.78-1.15a4.968 4.968 0 0 0 2.97 2.96l-1.17 2.78a7.996 7.996 0 0 1-4.58-4.59zm10.34 4.59l-1.15-2.78a4.978 4.978 0 0 0 2.95-2.97l2.78 1.17a8.007 8.007 0 0 1-4.58 4.58z"/></symbol><symbol viewBox="0 0 24 24" id="menu-05" xmlns="http://www.w3.org/2000/svg"><path d="M20 4H4c-1.1 0-1.99.9-1.99 2L2 18c0 1.1.9 2 2 2h16c1.1 0 2-.9 2-2V6c0-1.1-.9-2-2-2zm0 14H4V8l8 5 8-5v10zm-8-7L4 6h16l-8 5z"/></symbol><symbol viewBox="0 0 24 24" id="person" xmlns="http://www.w3.org/2000/svg"><path d="M12 6.86c1.1 0 2 .836 2 1.859 0 1.023-.9 1.86-2 1.86s-2-.837-2-1.86c0-1.023.9-1.86 2-1.86zm0 8.367c2.7 0 5.8 1.2 6 1.86v.93H6v-.92c.2-.67 3.3-1.87 6-1.87zM12 5C9.79 5 8 6.664 8 8.719c0 2.055 1.79 3.719 4 3.719s4-1.664 4-3.719C16 6.664 14.21 5 12 5zm0 8.368c-2.67 0-8 1.246-8 3.719v2.789h16v-2.79c0-2.472-5.33-3.718-8-3.718z"/></symbol><symbol viewBox="0 0 5 8.9" id="question" xmlns="http://www.w3.org/2000/svg"><path d="M1.8 6.4h1v-.1c0-1.1.3-1.5 1-2 .8-.4 1.2-1.1 1.2-2C5 1 4 0 2.5 0 1.2 0 .1.9 0 2.3h1.1c.1-1 .8-1.4 1.5-1.4S4 1.4 4 2.3c0 .7-.4 1.2-.9 1.5-.8.4-1.3.9-1.3 2.6zm.5 2.5c.4 0 .8-.3.8-.8 0-.4-.3-.8-.8-.8-.4 0-.8.3-.8.8s.4.8.8.8z"/></symbol><symbol viewBox="0 0 24 24" id="wallet" xmlns="http://www.w3.org/2000/svg"><path fill-rule="evenodd" clip-rule="evenodd" d="M21 16.72V19c0 1.1-.9 2-2 2H5a2 2 0 0 1-2-2V5a2 2 0 0 1 2-2h14c1.1 0 2 .9 2 2v2.28A2 2 0 0 1 22 9v6a2 2 0 0 1-1 1.72zM19 5H5v14h14v-2h-6c-1.1 0-2-.9-2-2V9c0-1.1.9-2 2-2h6V5zm1 4h-7v6h7V9zm-4 1.5a1.5 1.5 0 1 1 0 3 1.5 1.5 0 0 1 0-3z"/></symbol></svg>