<svg width="32" height="32" viewBox="0 0 32 32" fill="" xmlns="http://www.w3.org/2000/svg">
<path d="M22.0909 8.36364V23C22.0909 25.8127 19.8127 28.0909 17 28.0909C14.1873 28.0909 11.9091 25.8127 11.9091 23V7.09091C11.9091 5.33455 13.3345 3.90909 15.0909 3.90909C16.8473 3.90909 18.2727 5.33455 18.2727 7.09091V20.4545C18.2727 21.1545 17.7 21.7273 17 21.7273C16.3 21.7273 15.7273 21.1545 15.7273 20.4545V8.36364H13.8182V20.4545C13.8182 22.2109 15.2436 23.6364 17 23.6364C18.7564 23.6364 20.1818 22.2109 20.1818 20.4545V7.09091C20.1818 4.27818 17.9036 2 15.0909 2C12.2782 2 10 4.27818 10 7.09091V23C10 26.8691 13.1309 30 17 30C20.8691 30 24 26.8691 24 23V8.36364H22.0909Z" fill="#00A7E3"/>
</svg>
