<svg width="23" height="22" viewBox="0 0 23 22" fill="" xmlns="http://www.w3.org/2000/svg">
    <path fill-rule="evenodd" clip-rule="evenodd"
          d="M0.541736 21.4592C1.26378 22.1812 2.43444 22.1812 3.15648 21.4592L11.0005 13.6151L18.8448 21.4593C19.5668 22.1814 20.7375 22.1814 21.4595 21.4593C22.1816 20.7373 22.1816 19.5666 21.4595 18.8446L13.6153 11.0003L21.4597 3.15581C22.1818 2.43377 22.1818 1.2631 21.4597 0.541047C20.7377 -0.181 19.567 -0.181 18.845 0.541048L11.0005 8.38553L3.15628 0.541209C2.43424 -0.180838 1.26357 -0.180838 0.541532 0.54121C-0.180511 1.26326 -0.180511 2.43393 0.541532 3.15598L8.3858 11.0003L0.541735 18.8444C-0.180307 19.5665 -0.180306 20.7371 0.541736 21.4592Z"
          fill="white"/>
</svg>
