<svg width="20" height="22" viewBox="0 0 20 22" fill="" xmlns="http://www.w3.org/2000/svg">
<path fill-rule="evenodd" clip-rule="evenodd" d="M3 2H13V6H17V7H19V4.59L14.41 0H3C1.9 0 1 0.9 1 2V7H3V2ZM17 19V20H3V19H1V20C1 21.1 1.9 22 3 22H17C18.1 22 19 21.1 19 20V19H17ZM20 11H17C16.45 11 16 11.45 16 12V14C16 14.55 16.45 15 17 15H20V17H17C15.35 17 14 15.65 14 14V12C14 10.35 15.35 9 17 9H20V11ZM6 13C6 10.79 4.21 9 2 9H0V17H2C4.21 17 6 15.21 6 13ZM2 11C3.1 11 4 11.9 4 13C4 14.1 3.1 15 2 15V11ZM10 17C8.35 17 7 15.65 7 14V12C7 10.35 8.35 9 10 9C11.65 9 13 10.35 13 12V14C13 15.65 11.65 17 10 17ZM10 15C10.55 15 11 14.55 11 14V12C11 11.45 10.55 11 10 11C9.45 11 9 11.45 9 12V14C9 14.55 9.45 15 10 15Z" fill="#00A7E3"/>
</svg>
