<svg width="177" height="23" viewBox="0 0 177 23" fill="" xmlns="http://www.w3.org/2000/svg">
    <path d="M29.416 6.67813V20.054H31.6486H33.8812V13.3758C33.8812 12.1421 34.8799 11.1433 36.1137 11.1433H42.7919V8.9107H36.1137C35.2912 8.9107 34.547 9.14571 33.8812 9.53739V6.67813C33.8812 5.44434 34.8799 4.44556 36.1137 4.44556H47.257V2.23257H33.8812C31.4136 2.23257 29.416 4.23013 29.416 6.67813ZM49.4896 20.054H53.9547V2.23257H49.4896V20.054ZM75.125 6.67813C75.125 4.21055 73.1275 2.21298 70.6599 2.21298H61.7492C59.2816 2.21298 57.284 4.21055 57.284 6.67813V20.054H59.5166H61.7492H70.6599C73.1275 20.054 75.125 18.0564 75.125 15.5888V13.3758C75.125 12.0441 74.5179 10.8495 73.5779 10.027C74.5179 9.20446 75.125 8.02942 75.125 6.67813ZM72.8924 15.6084C72.8924 16.8422 71.8937 17.841 70.6599 17.841H61.7492V13.3758C61.7492 12.1421 62.7479 11.1433 63.9817 11.1433H70.6599C71.8937 11.1433 72.8924 12.1421 72.8924 13.3758V15.6084ZM70.6599 8.9107H63.9817C63.1592 8.9107 62.415 9.14571 61.7492 9.53739V6.67813C61.7492 5.44434 62.7479 4.44556 63.9817 4.44556H70.6599C71.8937 4.44556 72.8924 5.44434 72.8924 6.67813C72.8924 7.91192 71.8937 8.9107 70.6599 8.9107ZM78.0039 6.67813V11.1433V14.5705V15.6084C78.0039 18.076 80.0014 20.0736 82.469 20.0736H95.8449V17.841H84.7016C83.4678 17.841 82.469 16.8422 82.469 15.6084V14.5705V13.3758C82.469 12.1421 83.4678 11.1433 84.7016 11.1433H91.3797V8.9107H84.7016C83.8791 8.9107 83.1349 9.14571 82.469 9.53739V6.67813C82.469 5.44434 83.4678 4.44556 84.7016 4.44556H95.8449V2.23257H82.469C80.0014 2.23257 78.0039 4.23013 78.0039 6.67813ZM139.086 6.67813V11.1433V14.5705V15.6084C139.086 18.076 141.084 20.0736 143.551 20.0736H156.927V17.841H145.784C144.55 17.841 143.551 16.8422 143.551 15.6084V14.5705V13.3758C143.551 12.1421 144.55 11.1433 145.784 11.1433H152.482V8.9107H145.784C144.961 8.9107 144.217 9.14571 143.551 9.53739V6.67813C143.551 5.44434 144.55 4.44556 145.784 4.44556H156.927V2.23257H143.551C141.084 2.23257 139.086 4.23013 139.086 6.67813ZM111.453 2.23257H102.543C100.075 2.23257 98.0774 4.23013 98.0774 6.69771V20.0736H102.543V17.841V15.6084C102.543 14.3746 103.541 13.3758 104.775 13.3758H108.202C109.025 13.3758 109.749 13.8263 110.141 14.4921L113.353 20.0736H115.918L112.1 13.4542C112.08 13.415 112.041 13.3758 112.021 13.3171C114.215 13.0429 115.918 11.1824 115.918 8.9107V6.67813C115.899 4.23013 113.901 2.23257 111.453 2.23257ZM113.666 8.9107C113.666 10.1445 112.668 11.1433 111.434 11.1433H108.163H104.736C103.913 11.1433 103.169 11.3783 102.503 11.77V6.67813C102.503 5.44434 103.502 4.44556 104.736 4.44556H111.434C112.668 4.44556 113.666 5.44434 113.666 6.67813V8.9107ZM131.958 2.23257H123.047C120.579 2.23257 118.582 4.23013 118.582 6.69771V20.0736H123.047V6.67813C123.047 5.44434 124.046 4.44556 125.28 4.44556H131.958C133.192 4.44556 134.19 5.44434 134.19 6.67813V20.054H136.423V6.67813C136.403 4.23013 134.406 2.23257 131.958 2.23257ZM170.617 2.23257H170.303H159.16V4.46514H166.465C166.073 5.11141 165.838 5.87519 165.838 6.67813V20.054H170.303V6.67813C170.303 5.44434 171.302 4.44556 172.536 4.44556H177.001V2.23257H170.617Z"
          fill="#00A7E3"/>
    <path d="M11.1433 0C4.99391 0 0 4.99391 0 11.1433C0 17.2927 4.99391 22.2866 11.1433 22.2866C17.2927 22.2866 22.2866 17.2927 22.2866 11.1433C22.2866 4.99391 17.2927 0 11.1433 0ZM3.34886 11.1433C3.34886 9.90949 4.34764 8.91071 5.58143 8.91071C6.81522 8.91071 7.81401 9.90949 7.81401 11.1433C7.81401 12.3771 6.81522 13.3759 5.58143 13.3759C4.34764 13.3759 3.34886 12.3771 3.34886 11.1433ZM10.2816 17.0772C9.67449 18.1543 8.30361 18.5264 7.24607 17.8998C6.16895 17.2927 5.81644 15.9218 6.42354 14.8642C7.05023 13.7871 8.40153 13.4346 9.47865 14.0417C10.5362 14.6488 10.9083 16.0197 10.2816 17.0772ZM9.47865 8.24485C8.40153 8.87154 7.05023 8.49945 6.42354 7.44191C5.81644 6.36479 6.16895 5.0135 7.24607 4.38681C8.30361 3.77971 9.67449 4.13222 10.3012 5.20934C10.9083 6.26687 10.5362 7.63775 9.47865 8.24485ZM12.005 5.20934C12.6121 4.1518 13.983 3.77971 15.0601 4.38681C16.1176 5.0135 16.4701 6.36479 15.863 7.44191C15.2559 8.49945 13.885 8.87154 12.8079 8.24485C11.7504 7.63775 11.3783 6.26687 12.005 5.20934ZM15.0405 17.8998C13.983 18.5264 12.6121 18.1543 12.005 17.0772C11.3783 16.0197 11.7504 14.6488 12.8079 14.0417C13.885 13.4346 15.2559 13.7871 15.863 14.8642C16.4701 15.9218 16.1176 17.2927 15.0405 17.8998ZM16.7247 13.3759C15.4909 13.3759 14.4921 12.3771 14.4921 11.1433C14.4921 9.90949 15.4909 8.91071 16.7247 8.91071C17.9585 8.91071 18.9573 9.90949 18.9573 11.1433C18.9377 12.3771 17.9585 13.3759 16.7247 13.3759Z"
          fill="#00A7E3"/>
</svg>
