<svg width="24" height="24" viewBox="0 0 24 24" fill="" xmlns="http://www.w3.org/2000/svg">
    <path d="M12 6.8595C13.1 6.8595 14 7.69628 14 8.71901C14 9.74173 13.1 10.5785 12 10.5785C10.9 10.5785 10 9.74173 10 8.71901C10 7.69628 10.9 6.8595 12 6.8595ZM12 15.2273C14.7 15.2273 17.8 16.4267 18 17.0868V18.0165H6V17.0961C6.2 16.4267 9.3 15.2273 12 15.2273ZM12 5C9.79 5 8 6.66426 8 8.71901C8 10.7738 9.79 12.438 12 12.438C14.21 12.438 16 10.7738 16 8.71901C16 6.66426 14.21 5 12 5ZM12 13.3678C9.33 13.3678 4 14.6136 4 17.0868V19.876H20V17.0868C20 14.6136 14.67 13.3678 12 13.3678Z"
          fill="white"/>
</svg>
