<?xml version="1.0" encoding="utf-8"?>
<!-- Generator: Adobe Illustrator 21.1.0, SVG Export Plug-In . SVG Version: 6.00 Build 0)  -->
<svg version="1.1" id="Слой_1" xmlns="http://www.w3.org/2000/svg" xmlns:xlink="http://www.w3.org/1999/xlink" x="0px" y="0px"
	 viewBox="0 0 5 8.9" style="enable-background:new 0 0 5 8.9;" xml:space="preserve">
<style type="text/css">
	.st0{fill:#00A7E3;}
</style>
<path class="st0" d="M1.8,6.4h1V6.3c0-1.1,0.3-1.5,1-2C4.6,3.9,5,3.2,5,2.3C5,1,4,0,2.5,0C1.2,0,0.1,0.9,0,2.3h1.1
	c0.1-1,0.8-1.4,1.5-1.4C3.3,0.9,4,1.4,4,2.3c0,0.7-0.4,1.2-0.9,1.5C2.3,4.2,1.8,4.7,1.8,6.4L1.8,6.4z M2.3,8.9
	c0.4,0,0.8-0.3,0.8-0.8c0-0.4-0.3-0.8-0.8-0.8c-0.4,0-0.8,0.3-0.8,0.8C1.5,8.6,1.9,8.9,2.3,8.9z"/>
</svg>
