<svg width="24" height="24" viewBox="0 0 24 24" fill="" xmlns="http://www.w3.org/2000/svg">
    <path fill-rule="evenodd" clip-rule="evenodd"
          d="M21 16.72V19C21 20.1 20.1 21 19 21H5C3.89 21 3 20.1 3 19V5C3 3.9 3.89 3 5 3H19C20.1 3 21 3.9 21 5V7.28C21.59 7.63 22 8.26 22 9V15C22 15.74 21.59 16.37 21 16.72ZM19 5H5V19H19V17H13C11.9 17 11 16.1 11 15V9C11 7.9 11.9 7 13 7H19V5ZM20 9H13V15H20V9ZM16 10.5C16.828 10.5 17.5 11.171 17.5 12C17.5 12.828 16.828 13.5 16 13.5C15.171 13.5 14.5 12.828 14.5 12C14.5 11.171 15.171 10.5 16 10.5Z"
          fill="white"/>
</svg>
