<svg width="21" height="21" viewBox="0 0 21 21" fill="none" xmlns="http://www.w3.org/2000/svg">
<path d="M10.5 1.65375C6.1125 1.65375 2.625 5.14125 2.625 9.52875C2.625 11.6662 3.4125 13.6912 4.9875 15.1537C5.1 15.2662 9.6 19.3163 9.7125 19.4288C10.1625 19.7663 10.8375 19.7663 11.175 19.4288C11.2875 19.3163 15.9 15.2662 15.9 15.1537C17.475 13.6912 18.2625 11.6662 18.2625 9.52875C18.375 5.14125 14.8875 1.65375 10.5 1.65375ZM10.5 11.7787C9.2625 11.7787 8.25 10.7662 8.25 9.52875C8.25 8.29125 9.2625 7.27875 10.5 7.27875C11.7375 7.27875 12.75 8.29125 12.75 9.52875C12.75 10.7662 11.7375 11.7787 10.5 11.7787Z" fill="#00A7E3"/>
</svg>
